<?xml version="1.0" encoding="utf-8"?>
<!-- Generator: Adobe Illustrator 16.0.0, SVG Export Plug-In . SVG Version: 6.00 Build 0)  -->
<!DOCTYPE svg PUBLIC "-//W3C//DTD SVG 1.1//EN" "http://www.w3.org/Graphics/SVG/1.1/DTD/svg11.dtd">
<svg version="1.1" id="Layer_1" xmlns="http://www.w3.org/2000/svg" xmlns:xlink="http://www.w3.org/1999/xlink" x="0px" y="0px"
	 width="500px" height="500px" viewBox="0 0 500 500" enable-background="new 0 0 500 500" xml:space="preserve">
<path d="M254.167,92.334c-88.826,0-160.834,72.008-160.834,160.834c0,88.825,72.008,160.833,160.834,160.833
	c88.825,0,160.833-72.008,160.833-160.833C415,164.342,342.992,92.334,254.167,92.334z M254.167,404.168
	c-83.396,0-151.001-67.605-151.001-151c0-83.396,67.605-151.001,151.001-151.001c83.396,0,150.999,67.605,150.999,151.001
	C405.166,336.562,337.562,404.168,254.167,404.168z"/>
<polygon points="171.02,251.176 234.956,293.657 319.205,161.101 359.251,185.556 246.482,352.438 142.056,283.482 "/>
</svg>
