<?xml version="1.0" encoding="utf-8"?>
<!-- Generator: Adobe Illustrator 16.0.0, SVG Export Plug-In . SVG Version: 6.00 Build 0)  -->
<!DOCTYPE svg PUBLIC "-//W3C//DTD SVG 1.1//EN" "http://www.w3.org/Graphics/SVG/1.1/DTD/svg11.dtd">
<svg version="1.1" id="Layer_1" xmlns="http://www.w3.org/2000/svg" xmlns:xlink="http://www.w3.org/1999/xlink" x="0px" y="0px"
	 width="500px" height="500px" viewBox="0 0 500 500" enable-background="new 0 0 500 500" xml:space="preserve">
<path d="M162.405,396.142L30.325,263.309c-3.767-3.767-5.775-8.538-5.775-14.313c0-5.524,2.009-10.044,5.775-13.811l43.692-43.943
	c7.784-7.784,20.841-7.282,28.124,0l91.652,91.652c3.767,3.767,8.537,5.775,14.312,5.775c5.524,0,10.044-2.009,13.811-5.775
	L409.238,95.823c3.767-3.767,8.538-5.775,14.313-5.775c5.524,0,10.295,2.009,14.062,5.775l43.691,43.692
	c7.784,7.784,7.282,20.841,0,28.124L252.802,396.142c-7.784,7.784-22.85,13.811-33.898,13.811h-22.097
	C185.004,409.952,169.687,403.424,162.405,396.142z"/>
</svg>
