<?xml version="1.0" encoding="utf-8"?>
<!-- Generator: Adobe Illustrator 16.0.0, SVG Export Plug-In . SVG Version: 6.00 Build 0)  -->
<!DOCTYPE svg PUBLIC "-//W3C//DTD SVG 1.1//EN" "http://www.w3.org/Graphics/SVG/1.1/DTD/svg11.dtd">
<svg version="1.1" id="Layer_1" xmlns="http://www.w3.org/2000/svg" xmlns:xlink="http://www.w3.org/1999/xlink" x="0px" y="0px"
	 width="500px" height="500px" viewBox="0 0 500 500" enable-background="new 0 0 500 500" xml:space="preserve">
<path d="M413.049,161.306l-74.354-74.354l31.601-31.601c6.107-6.108,13.543-9.294,22.306-9.294c8.764,0,16.199,3.187,22.307,9.294
	l15.137,14.605l14.605,15.137c6.107,6.107,9.294,13.543,9.294,22.306s-3.187,16.199-9.294,22.306L413.049,161.306z M308.155,157.057
	l-183.23,182.699c-1.859,1.859-2.655,3.718-2.655,5.843c0,4.515,3.452,8.231,8.498,8.231c2.125,0,3.983-0.796,5.577-2.124
	l183.23-183.23c3.452-3.452,3.452-7.435,0-11.418c-1.858-1.859-3.718-2.656-5.842-2.656
	C311.343,154.401,309.483,155.198,308.155,157.057z M157.057,417.562l-111,36.381l36.38-111L312.67,112.976l74.354,74.354
	L157.057,417.562z"/>
</svg>
