<?xml version="1.0" encoding="utf-8"?>
<!-- Generator: Adobe Illustrator 16.0.0, SVG Export Plug-In . SVG Version: 6.00 Build 0)  -->
<!DOCTYPE svg PUBLIC "-//W3C//DTD SVG 1.1//EN" "http://www.w3.org/Graphics/SVG/1.1/DTD/svg11.dtd">
<svg version="1.1" id="Layer_1" xmlns="http://www.w3.org/2000/svg" xmlns:xlink="http://www.w3.org/1999/xlink" x="0px" y="0px"
	 width="500px" height="500px" viewBox="0 0 500 500" enable-background="new 0 0 500 500" xml:space="preserve">
<path d="M37.752,269.991v-39.983c0-14.438,11.662-26.101,26.101-26.101h141.055v-140.5c0-15.271,10.829-26.656,26.101-26.656h39.983
	c14.439,0,26.102,11.662,26.102,26.101v141.055h141.054c14.439,0,26.102,11.662,26.102,26.101v39.983
	c0,14.439-11.662,26.102-26.102,26.102H297.093v140.499c0,15.272-11.662,26.656-26.102,26.656h-39.983
	c-14.438,0-26.101-11.662-26.101-26.101V296.093h-140.5C49.137,296.093,37.752,285.264,37.752,269.991z"/>
</svg>
