<?xml version="1.0" encoding="utf-8"?>
<!-- Generator: Adobe Illustrator 16.0.0, SVG Export Plug-In . SVG Version: 6.00 Build 0)  -->
<!DOCTYPE svg PUBLIC "-//W3C//DTD SVG 1.1//EN" "http://www.w3.org/Graphics/SVG/1.1/DTD/svg11.dtd">
<svg version="1.1" id="Layer_1" xmlns="http://www.w3.org/2000/svg" xmlns:xlink="http://www.w3.org/1999/xlink" x="0px" y="0px"
	 width="500px" height="500px" viewBox="0 0 500 500" enable-background="new 0 0 500 500" xml:space="preserve">
<path d="M83.195,444.328l-26.261-26.261c-4.989-4.989-7.615-11.029-7.615-17.857c0-6.565,2.626-12.604,7.615-17.595l133.404-133.928
	L56.935,117.384c-4.989-4.989-7.615-11.029-7.615-17.857c0-6.565,2.626-12.605,7.615-17.595l26.261-26.26
	c4.989-4.99,11.029-7.616,17.857-7.616c6.828,0,12.605,2.626,17.595,7.616L251,188.025L383.353,55.672
	c4.99-4.99,11.03-7.616,17.857-7.616c6.565,0,12.605,2.626,17.595,7.616l26.261,26.26c4.989,4.99,7.615,11.029,7.615,17.857
	c0,6.828-2.626,12.605-7.615,17.594L311.662,251.313l133.403,131.302c4.989,4.99,7.615,10.768,7.615,17.332
	c0,6.565-2.626,12.605-7.615,17.595l-26.261,26.786c-4.989,4.989-11.029,7.615-17.857,7.615c-6.827,0-12.604-2.626-17.595-7.615
	L251,311.712L118.122,444.328c-4.989,4.989-10.767,7.615-17.332,7.615C94.225,451.943,88.185,449.317,83.195,444.328z"/>
</svg>
